<?xml version="1.0" encoding="UTF-8"?>
<!-- Generated by Pixelmator Pro 3.3.2 -->
<svg width="3000" height="1200" viewBox="0 0 3000 1200" xmlns="http://www.w3.org/2000/svg" xmlns:xlink="http://www.w3.org/1999/xlink">
    <g id="OSIRIS">
        <text id="osiris" visibility="hidden" xml:space="preserve" x="160.925202" y="537" font-family="Cyberspace Raceway" font-size="561.477768" fill="#f515ac" letter-spacing="-16.844333">osiris</text>
        <text id="text1" visibility="hidden" xml:space="preserve" x="160.925202" y="538" font-family="Cyberspace Raceway" font-size="561.477768" fill="#992393" letter-spacing="-16.844333">osiris</text>
    </g>
    <g id="DREAMS">
        <text id="text2" visibility="hidden" xml:space="preserve" x="84.512837" y="1184" font-family="Cyberspace Raceway" font-size="495.60411" fill="#2359f0" letter-spacing="-14.868123">DREAMS</text>
        <text id="text3" visibility="hidden" xml:space="preserve" x="84.512837" y="1183" font-family="Cyberspace Raceway" font-size="495.60411" fill="#5ec4ff" letter-spacing="-14.868123">DREAMS</text>
    </g>
    <g id="Vectors">
        <g id="OSIRIS-copy">
            <path id="path1" fill="#f515ac" fill-rule="evenodd" stroke="none" d="M 2357.376709 607 L 2357.376709 441.956299 L 2654.702148 441.956299 L 2654.702148 408.920044 L 2423.448975 408.920044 L 2324.477539 309.811523 L 2324.477539 144.630737 L 2423.448975 45.522217 L 2786.84668 45.522217 L 2786.84668 210.703125 L 2489.52124 210.703125 L 2489.52124 243.739258 L 2720.774414 243.739258 L 2819.883057 342.847778 L 2819.883057 508.028564 L 2720.774414 607 Z M 2011.09729 607 L 2011.09729 441.956299 L 2077.032471 441.956299 L 2077.032471 210.703125 L 2011.09729 210.703125 L 2011.09729 45.522217 L 2308.285645 45.522217 L 2308.285645 210.703125 L 2242.213379 210.703125 L 2242.213379 441.956299 L 2308.285645 441.956299 L 2308.285645 607 Z M 1829.724609 243.739258 L 1829.724609 210.703125 L 1664.543701 210.703125 L 1664.543701 243.739258 Z M 1499.5 607 L 1499.5 45.522217 L 1895.796875 45.522217 L 1994.905396 144.630737 L 1994.905396 276.775391 L 1961.869263 309.811523 L 1961.732178 309.811523 L 1945.282593 326.261108 L 1994.905396 375.883911 L 1994.905396 607 L 1829.724609 607 L 1829.724609 408.920044 L 1664.543701 408.920044 L 1664.543701 607 Z M 1186.119751 607 L 1186.119751 441.956299 L 1252.055054 441.956299 L 1252.055054 210.703125 L 1186.119751 210.703125 L 1186.119751 45.522217 L 1483.308105 45.522217 L 1483.308105 210.703125 L 1417.23584 210.703125 L 1417.23584 441.956299 L 1483.308105 441.956299 L 1483.308105 607 Z M 707.42157 607 L 707.42157 441.956299 L 1004.74707 441.956299 L 1004.74707 408.920044 L 773.493896 408.920044 L 674.522461 309.811523 L 674.522461 144.630737 L 773.493896 45.522217 L 1136.891724 45.522217 L 1136.891724 210.703125 L 839.566223 210.703125 L 839.566223 243.739258 L 1070.819458 243.739258 L 1169.927856 342.847778 L 1169.927856 508.028564 L 1070.819458 607 Z M 493.149811 441.956299 L 493.149811 210.703125 L 327.968964 210.703125 L 327.968964 441.956299 Z M 261.896637 607 L 162.925201 508.028564 L 162.925201 144.630737 L 261.896637 45.522217 L 559.222107 45.522217 L 658.330627 144.630737 L 658.330627 508.028564 L 559.222107 607 Z"/>
            <path id="path2" fill="#992393" fill-rule="evenodd" stroke="none" d="M 2357.376709 607 L 2357.376709 574.100952 L 2753.810547 574.100952 L 2720.774414 607 Z M 2357.376709 508.028564 L 2357.376709 474.992432 L 2819.883057 474.992432 L 2819.883057 508.028564 Z M 2654.702148 441.956299 L 2654.702148 408.920044 L 2819.883057 408.920044 L 2819.883057 441.956299 Z M 2390.412842 375.883911 L 2357.376709 342.847778 L 2819.883057 342.847778 L 2819.883057 375.883911 Z M 2324.477539 309.811523 L 2324.477539 144.630737 L 2423.448975 45.522217 L 2786.84668 45.522217 L 2786.84668 210.703125 L 2489.52124 210.703125 L 2489.52124 243.739258 L 2720.774414 243.739258 L 2786.84668 309.811523 Z M 2011.09729 607 L 2011.09729 574.100952 L 2308.285645 574.100952 L 2308.285645 607 Z M 2011.09729 508.028564 L 2011.09729 474.992432 L 2308.285645 474.992432 L 2308.285645 508.028564 Z M 2077.032471 441.956299 L 2077.032471 408.920044 L 2242.213379 408.920044 L 2242.213379 441.956299 Z M 2077.032471 375.883911 L 2077.032471 342.847778 L 2242.213379 342.847778 L 2242.213379 375.883911 Z M 2077.032471 309.811523 L 2077.032471 210.703125 L 2011.09729 210.703125 L 2011.09729 45.522217 L 2308.285645 45.522217 L 2308.285645 210.703125 L 2242.213379 210.703125 L 2242.213379 309.811523 Z M 1499.5 607 L 1499.5 574.100952 L 1664.543701 574.100952 L 1664.543701 607 Z M 1829.724609 607 L 1829.724609 574.100952 L 1994.905396 574.100952 L 1994.905396 607 Z M 1499.5 508.028564 L 1499.5 474.992432 L 1664.543701 474.992432 L 1664.543701 508.028564 Z M 1829.724609 508.028564 L 1829.724609 474.992432 L 1994.905396 474.992432 L 1994.905396 508.028564 Z M 1499.5 441.956299 L 1499.5 408.920044 L 1664.543701 408.920044 L 1664.543701 441.956299 Z M 1829.724609 441.956299 L 1829.724609 408.920044 L 1994.905396 408.920044 L 1994.905396 441.956299 Z M 1499.5 375.883911 L 1499.5 342.847778 L 1961.869263 342.847778 L 1994.905396 375.883911 Z M 1829.724609 243.739258 L 1829.724609 210.703125 L 1664.543701 210.703125 L 1664.543701 243.739258 Z M 1499.5 309.811523 L 1499.5 45.522217 L 1895.796875 45.522217 L 1994.905396 144.630737 L 1994.905396 276.775391 L 1961.869263 309.811523 Z M 1186.119751 607 L 1186.119751 574.100952 L 1483.308105 574.100952 L 1483.308105 607 Z M 1186.119751 508.028564 L 1186.119751 474.992432 L 1483.308105 474.992432 L 1483.308105 508.028564 Z M 1252.055054 441.956299 L 1252.055054 408.920044 L 1417.23584 408.920044 L 1417.23584 441.956299 Z M 1252.055054 375.883911 L 1252.055054 342.847778 L 1417.23584 342.847778 L 1417.23584 375.883911 Z M 1252.055054 309.811523 L 1252.055054 210.703125 L 1186.119751 210.703125 L 1186.119751 45.522217 L 1483.308105 45.522217 L 1483.308105 210.703125 L 1417.23584 210.703125 L 1417.23584 309.811523 Z M 707.42157 607 L 707.42157 574.100952 L 1103.855591 574.100952 L 1070.819458 607 Z M 707.42157 508.028564 L 707.42157 474.992432 L 1169.927856 474.992432 L 1169.927856 508.028564 Z M 1004.74707 441.956299 L 1004.74707 408.920044 L 1169.927856 408.920044 L 1169.927856 441.956299 Z M 740.457703 375.883911 L 707.42157 342.847778 L 1169.927856 342.847778 L 1169.927856 375.883911 Z M 674.522461 309.811523 L 674.522461 144.630737 L 773.493896 45.522217 L 1136.891724 45.522217 L 1136.891724 210.703125 L 839.566223 210.703125 L 839.566223 243.739258 L 1070.819458 243.739258 L 1136.891724 309.811523 Z M 261.896637 607 L 228.860458 574.100952 L 592.258301 574.100952 L 559.222107 607 Z M 162.925201 508.028564 L 162.925201 474.992432 L 658.330627 474.992432 L 658.330627 508.028564 Z M 162.925201 441.956299 L 162.925201 408.920044 L 327.968964 408.920044 L 327.968964 441.956299 Z M 493.149811 441.956299 L 493.149811 408.920044 L 658.330627 408.920044 L 658.330627 441.956299 Z M 162.925201 375.883911 L 162.925201 342.847778 L 327.968964 342.847778 L 327.968964 375.883911 Z M 493.149811 375.883911 L 493.149811 342.847778 L 658.330627 342.847778 L 658.330627 375.883911 Z M 162.925201 309.811523 L 162.925201 144.630737 L 261.896637 45.522217 L 559.222107 45.522217 L 658.330627 144.630737 L 658.330627 309.811523 L 493.149811 309.811523 L 493.149811 210.703125 L 327.968964 210.703125 L 327.968964 309.811523 Z"/>
        </g>
        <g id="DREAMS-copy">
            <path id="path3" fill="#2359f0" fill-rule="evenodd" stroke="none" d="M 2434.214844 1155 L 2434.214844 1017.333923 L 2682.219727 1017.333923 L 2682.219727 989.777893 L 2489.327148 989.777893 L 2406.773193 907.109741 L 2406.773193 769.329346 L 2489.327148 686.661072 L 2792.443848 686.661072 L 2792.443848 824.441467 L 2544.439209 824.441467 L 2544.439209 851.997559 L 2737.331787 851.997559 L 2820 934.665771 L 2820 1072.446045 L 2737.331787 1155 Z M 1869.930542 1155 L 1869.930542 769.329346 L 1952.484497 686.661072 L 2090.264893 686.661072 L 2117.820801 714.217163 L 2117.820801 714.331543 L 2131.541748 728.05249 L 2172.933105 686.661072 L 2310.713379 686.661072 L 2393.267334 769.329346 L 2393.267334 1155 L 2255.601074 1155 L 2255.601074 824.441467 L 2200.489014 824.441467 L 2200.489014 1155 L 2062.70874 1155 L 2062.70874 824.441467 L 2007.596558 824.441467 L 2007.596558 1155 Z M 1718.644287 851.997559 L 1718.644287 824.441467 L 1580.864014 824.441467 L 1580.864014 851.997559 Z M 1443.197876 1155 L 1443.197876 769.329346 L 1525.751831 686.661072 L 1773.75647 686.661072 L 1856.424683 769.329346 L 1856.424683 1155 L 1718.644287 1155 L 1718.644287 989.777893 L 1580.864014 989.777893 L 1580.864014 1155 Z M 1016.465271 1155 L 1016.465271 686.661072 L 1429.692017 686.661072 L 1429.692017 824.441467 L 1154.131348 824.441467 L 1154.131348 851.997559 L 1319.467773 851.997559 L 1319.467773 989.777893 L 1154.131348 989.777893 L 1154.131348 1017.333923 L 1429.692017 1017.333923 L 1429.692017 1155 Z M 865.179077 851.997559 L 865.179077 824.441467 L 727.398682 824.441467 L 727.398682 851.997559 Z M 589.732605 1155 L 589.732605 686.661072 L 920.291138 686.661072 L 1002.959351 769.329346 L 1002.959351 879.553589 L 975.40332 907.109741 L 975.289001 907.109741 L 961.568115 920.830566 L 1002.959351 962.221863 L 1002.959351 1155 L 865.179077 1155 L 865.179077 989.777893 L 727.398682 989.777893 L 727.398682 1155 Z M 438.446381 1017.333923 L 438.446381 824.441467 L 300.666016 824.441467 L 300.666016 1017.333923 Z M 163 1155 L 163 686.661072 L 493.558533 686.661072 L 576.226746 769.329346 L 576.226746 1072.446045 L 493.558533 1155 Z"/>
            <path id="path4" fill="#5ec4ff" fill-rule="evenodd" stroke="none" d="M 2434.084229 1155 L 2434.084229 1127.578125 L 2764.517822 1127.578125 L 2736.981689 1155 Z M 2434.084229 1072.505859 L 2434.084229 1044.969727 L 2819.590088 1044.969727 L 2819.590088 1072.505859 Z M 2681.909424 1017.433594 L 2681.909424 989.897461 L 2819.590088 989.897461 L 2819.590088 1017.433594 Z M 2461.620361 962.361328 L 2434.084229 934.825195 L 2819.590088 934.825195 L 2819.590088 962.361328 Z M 2406.662354 907.289124 L 2406.662354 769.608459 L 2489.156494 687 L 2792.053955 687 L 2792.053955 824.680664 L 2544.22876 824.680664 L 2544.22876 852.216797 L 2736.981689 852.216797 L 2792.053955 907.289124 Z M 1870.208252 1155 L 1870.208252 1127.578125 L 2007.774658 1127.578125 L 2007.774658 1155 Z M 2062.846924 1155 L 2062.846924 1127.578125 L 2200.527588 1127.578125 L 2200.527588 1155 Z M 2255.599854 1155 L 2255.599854 1127.578125 L 2393.16626 1127.578125 L 2393.16626 1155 Z M 1870.208252 1072.505859 L 1870.208252 1044.969727 L 2007.774658 1044.969727 L 2007.774658 1072.505859 Z M 2062.846924 1072.505859 L 2062.846924 1044.969727 L 2200.527588 1044.969727 L 2200.527588 1072.505859 Z M 2255.599854 1072.505859 L 2255.599854 1044.969727 L 2393.16626 1044.969727 L 2393.16626 1072.505859 Z M 1870.208252 1017.433594 L 1870.208252 989.897461 L 2007.774658 989.897461 L 2007.774658 1017.433594 Z M 2062.846924 1017.433594 L 2062.846924 989.897461 L 2200.527588 989.897461 L 2200.527588 1017.433594 Z M 2255.599854 1017.433594 L 2255.599854 989.897461 L 2393.16626 989.897461 L 2393.16626 1017.433594 Z M 1870.208252 962.361328 L 1870.208252 934.825195 L 2007.774658 934.825195 L 2007.774658 962.361328 Z M 2062.846924 962.361328 L 2062.846924 934.825195 L 2200.527588 934.825195 L 2200.527588 962.361328 Z M 2255.599854 962.361328 L 2255.599854 934.825195 L 2393.16626 934.825195 L 2393.16626 962.361328 Z M 1870.208252 907.289124 L 1870.208252 769.608459 L 1952.702393 687 L 2090.383057 687 L 2117.919189 714.536133 L 2117.919189 714.650452 L 2131.630127 728.361389 L 2172.991455 687 L 2310.671875 687 L 2393.16626 769.608459 L 2393.16626 907.289124 L 2255.599854 907.289124 L 2255.599854 824.680664 L 2200.527588 824.680664 L 2200.527588 907.289124 L 2062.846924 907.289124 L 2062.846924 824.680664 L 2007.774658 824.680664 L 2007.774658 907.289124 Z M 1443.784424 1155 L 1443.784424 1127.578125 L 1581.35083 1127.578125 L 1581.35083 1155 Z M 1719.031494 1155 L 1719.031494 1127.578125 L 1856.712158 1127.578125 L 1856.712158 1155 Z M 1443.784424 1072.505859 L 1443.784424 1044.969727 L 1581.35083 1044.969727 L 1581.35083 1072.505859 Z M 1719.031494 1072.505859 L 1719.031494 1044.969727 L 1856.712158 1044.969727 L 1856.712158 1072.505859 Z M 1443.784424 1017.433594 L 1443.784424 989.897461 L 1581.35083 989.897461 L 1581.35083 1017.433594 Z M 1719.031494 1017.433594 L 1719.031494 989.897461 L 1856.712158 989.897461 L 1856.712158 1017.433594 Z M 1443.784424 962.361328 L 1443.784424 934.825195 L 1856.712158 934.825195 L 1856.712158 962.361328 Z M 1719.031494 852.216797 L 1719.031494 824.680664 L 1581.35083 824.680664 L 1581.35083 852.216797 Z M 1443.784424 907.289124 L 1443.784424 769.608459 L 1526.278564 687 L 1774.10376 687 L 1856.712158 769.608459 L 1856.712158 907.289124 Z M 1017.360535 1155 L 1017.360535 1127.578125 L 1430.28833 1127.578125 L 1430.28833 1155 Z M 1017.360535 1072.505859 L 1017.360535 1044.969727 L 1430.28833 1044.969727 L 1430.28833 1072.505859 Z M 1017.360535 1017.433594 L 1017.360535 989.897461 L 1154.927002 989.897461 L 1154.927002 1017.433594 Z M 1017.360535 962.361328 L 1017.360535 934.825195 L 1320.143799 934.825195 L 1320.143799 962.361328 Z M 1017.360535 907.289124 L 1017.360535 687 L 1430.28833 687 L 1430.28833 824.680664 L 1154.927002 824.680664 L 1154.927002 852.216797 L 1320.143799 852.216797 L 1320.143799 907.289124 Z M 590.936646 1155 L 590.936646 1127.578125 L 728.503113 1127.578125 L 728.503113 1155 Z M 866.183777 1155 L 866.183777 1127.578125 L 1003.86438 1127.578125 L 1003.86438 1155 Z M 590.936646 1072.505859 L 590.936646 1044.969727 L 728.503113 1044.969727 L 728.503113 1072.505859 Z M 866.183777 1072.505859 L 866.183777 1044.969727 L 1003.86438 1044.969727 L 1003.86438 1072.505859 Z M 590.936646 1017.433594 L 590.936646 989.897461 L 728.503113 989.897461 L 728.503113 1017.433594 Z M 866.183777 1017.433594 L 866.183777 989.897461 L 1003.86438 989.897461 L 1003.86438 1017.433594 Z M 590.936646 962.361328 L 590.936646 934.825195 L 976.328308 934.825195 L 1003.86438 962.361328 Z M 866.183777 852.216797 L 866.183777 824.680664 L 728.503113 824.680664 L 728.503113 852.216797 Z M 590.936646 907.289124 L 590.936646 687 L 921.255981 687 L 1003.86438 769.608459 L 1003.86438 879.75293 L 976.328308 907.289124 Z M 164.512833 1155 L 164.512833 1127.578125 L 522.368286 1127.578125 L 494.832184 1155 Z M 164.512833 1072.505859 L 164.512833 1044.969727 L 577.440552 1044.969727 L 577.440552 1072.505859 Z M 164.512833 1017.433594 L 164.512833 989.897461 L 302.079254 989.897461 L 302.079254 1017.433594 Z M 439.759888 1017.433594 L 439.759888 989.897461 L 577.440552 989.897461 L 577.440552 1017.433594 Z M 164.512833 962.361328 L 164.512833 934.825195 L 302.079254 934.825195 L 302.079254 962.361328 Z M 439.759888 962.361328 L 439.759888 934.825195 L 577.440552 934.825195 L 577.440552 962.361328 Z M 164.512833 907.289124 L 164.512833 687 L 494.832184 687 L 577.440552 769.608459 L 577.440552 907.289124 L 439.759888 907.289124 L 439.759888 824.680664 L 302.079254 824.680664 L 302.079254 907.289124 Z"/>
        </g>
    </g>
</svg>
