<svg xmlns="http://www.w3.org/2000/svg" xmlns:xlink="http://www.w3.org/1999/xlink" viewBox="84.51 743.5 2825.95 1515.5">
    <g id="OSIRIS">
        <text id="osiris" visibility="hidden" xml:space="preserve" x="160.925202" y="1437" font-family="Cyberspace Raceway" font-size="561.477768" fill="#f515ac" letter-spacing="-16.844333">osiris</text>
        <text id="text1" visibility="hidden" xml:space="preserve" x="160.925202" y="1438" font-family="Cyberspace Raceway" font-size="561.477768" fill="#992393" letter-spacing="-16.844333">osiris</text>
    </g>
    <g id="DREAMS">
        <text id="text2" visibility="hidden" xml:space="preserve" x="84.512837" y="2084" font-family="Cyberspace Raceway" font-size="495.60411" fill="#2359f0" letter-spacing="-14.868123">DREAMS</text>
        <text id="text3" visibility="hidden" xml:space="preserve" x="84.512837" y="2083" font-family="Cyberspace Raceway" font-size="495.60411" fill="#5ec4ff" letter-spacing="-14.868123">DREAMS</text>
    </g>
    <g id="Vectors">
        <g id="OSIRIS-copy">
            <path id="path1" fill="#f515ac" fill-rule="evenodd" stroke="none" d="M 2357.376709 1436 L 2357.376709 1270.956299 L 2654.702148 1270.956299 L 2654.702148 1237.920044 L 2423.448975 1237.920044 L 2324.477539 1138.811523 L 2324.477539 973.630737 L 2423.448975 874.522217 L 2786.84668 874.522217 L 2786.84668 1039.703125 L 2489.52124 1039.703125 L 2489.52124 1072.739258 L 2720.774414 1072.739258 L 2819.883057 1171.847778 L 2819.883057 1337.028564 L 2720.774414 1436 Z M 2011.09729 1436 L 2011.09729 1270.956299 L 2077.032471 1270.956299 L 2077.032471 1039.703125 L 2011.09729 1039.703125 L 2011.09729 874.522217 L 2308.285645 874.522217 L 2308.285645 1039.703125 L 2242.213379 1039.703125 L 2242.213379 1270.956299 L 2308.285645 1270.956299 L 2308.285645 1436 Z M 1829.724609 1072.739258 L 1829.724609 1039.703125 L 1664.543701 1039.703125 L 1664.543701 1072.739258 Z M 1499.5 1436 L 1499.5 874.522217 L 1895.796875 874.522217 L 1994.905396 973.630737 L 1994.905396 1105.775391 L 1961.869263 1138.811523 L 1961.732178 1138.811523 L 1945.282593 1155.261108 L 1994.905396 1204.883911 L 1994.905396 1436 L 1829.724609 1436 L 1829.724609 1237.920044 L 1664.543701 1237.920044 L 1664.543701 1436 Z M 1186.119751 1436 L 1186.119751 1270.956299 L 1252.055054 1270.956299 L 1252.055054 1039.703125 L 1186.119751 1039.703125 L 1186.119751 874.522217 L 1483.308105 874.522217 L 1483.308105 1039.703125 L 1417.23584 1039.703125 L 1417.23584 1270.956299 L 1483.308105 1270.956299 L 1483.308105 1436 Z M 707.42157 1436 L 707.42157 1270.956299 L 1004.74707 1270.956299 L 1004.74707 1237.920044 L 773.493896 1237.920044 L 674.522461 1138.811523 L 674.522461 973.630737 L 773.493896 874.522217 L 1136.891724 874.522217 L 1136.891724 1039.703125 L 839.566223 1039.703125 L 839.566223 1072.739258 L 1070.819458 1072.739258 L 1169.927856 1171.847778 L 1169.927856 1337.028564 L 1070.819458 1436 Z M 493.149811 1270.956299 L 493.149811 1039.703125 L 327.968964 1039.703125 L 327.968964 1270.956299 Z M 261.896637 1436 L 162.925201 1337.028564 L 162.925201 973.630737 L 261.896637 874.522217 L 559.222107 874.522217 L 658.330627 973.630737 L 658.330627 1337.028564 L 559.222107 1436 Z"/>
            <path id="path2" fill="#992393" fill-rule="evenodd" stroke="none" d="M 2357.376709 1436 L 2357.376709 1403.100952 L 2753.810547 1403.100952 L 2720.774414 1436 Z M 2357.376709 1337.028564 L 2357.376709 1303.992432 L 2819.883057 1303.992432 L 2819.883057 1337.028564 Z M 2654.702148 1270.956299 L 2654.702148 1237.920044 L 2819.883057 1237.920044 L 2819.883057 1270.956299 Z M 2390.412842 1204.883911 L 2357.376709 1171.847778 L 2819.883057 1171.847778 L 2819.883057 1204.883911 Z M 2324.477539 1138.811523 L 2324.477539 973.630737 L 2423.448975 874.522217 L 2786.84668 874.522217 L 2786.84668 1039.703125 L 2489.52124 1039.703125 L 2489.52124 1072.739258 L 2720.774414 1072.739258 L 2786.84668 1138.811523 Z M 2011.09729 1436 L 2011.09729 1403.100952 L 2308.285645 1403.100952 L 2308.285645 1436 Z M 2011.09729 1337.028564 L 2011.09729 1303.992432 L 2308.285645 1303.992432 L 2308.285645 1337.028564 Z M 2077.032471 1270.956299 L 2077.032471 1237.920044 L 2242.213379 1237.920044 L 2242.213379 1270.956299 Z M 2077.032471 1204.883911 L 2077.032471 1171.847778 L 2242.213379 1171.847778 L 2242.213379 1204.883911 Z M 2077.032471 1138.811523 L 2077.032471 1039.703125 L 2011.09729 1039.703125 L 2011.09729 874.522217 L 2308.285645 874.522217 L 2308.285645 1039.703125 L 2242.213379 1039.703125 L 2242.213379 1138.811523 Z M 1499.5 1436 L 1499.5 1403.100952 L 1664.543701 1403.100952 L 1664.543701 1436 Z M 1829.724609 1436 L 1829.724609 1403.100952 L 1994.905396 1403.100952 L 1994.905396 1436 Z M 1499.5 1337.028564 L 1499.5 1303.992432 L 1664.543701 1303.992432 L 1664.543701 1337.028564 Z M 1829.724609 1337.028564 L 1829.724609 1303.992432 L 1994.905396 1303.992432 L 1994.905396 1337.028564 Z M 1499.5 1270.956299 L 1499.5 1237.920044 L 1664.543701 1237.920044 L 1664.543701 1270.956299 Z M 1829.724609 1270.956299 L 1829.724609 1237.920044 L 1994.905396 1237.920044 L 1994.905396 1270.956299 Z M 1499.5 1204.883911 L 1499.5 1171.847778 L 1961.869263 1171.847778 L 1994.905396 1204.883911 Z M 1829.724609 1072.739258 L 1829.724609 1039.703125 L 1664.543701 1039.703125 L 1664.543701 1072.739258 Z M 1499.5 1138.811523 L 1499.5 874.522217 L 1895.796875 874.522217 L 1994.905396 973.630737 L 1994.905396 1105.775391 L 1961.869263 1138.811523 Z M 1186.119751 1436 L 1186.119751 1403.100952 L 1483.308105 1403.100952 L 1483.308105 1436 Z M 1186.119751 1337.028564 L 1186.119751 1303.992432 L 1483.308105 1303.992432 L 1483.308105 1337.028564 Z M 1252.055054 1270.956299 L 1252.055054 1237.920044 L 1417.23584 1237.920044 L 1417.23584 1270.956299 Z M 1252.055054 1204.883911 L 1252.055054 1171.847778 L 1417.23584 1171.847778 L 1417.23584 1204.883911 Z M 1252.055054 1138.811523 L 1252.055054 1039.703125 L 1186.119751 1039.703125 L 1186.119751 874.522217 L 1483.308105 874.522217 L 1483.308105 1039.703125 L 1417.23584 1039.703125 L 1417.23584 1138.811523 Z M 707.42157 1436 L 707.42157 1403.100952 L 1103.855591 1403.100952 L 1070.819458 1436 Z M 707.42157 1337.028564 L 707.42157 1303.992432 L 1169.927856 1303.992432 L 1169.927856 1337.028564 Z M 1004.74707 1270.956299 L 1004.74707 1237.920044 L 1169.927856 1237.920044 L 1169.927856 1270.956299 Z M 740.457703 1204.883911 L 707.42157 1171.847778 L 1169.927856 1171.847778 L 1169.927856 1204.883911 Z M 674.522461 1138.811523 L 674.522461 973.630737 L 773.493896 874.522217 L 1136.891724 874.522217 L 1136.891724 1039.703125 L 839.566223 1039.703125 L 839.566223 1072.739258 L 1070.819458 1072.739258 L 1136.891724 1138.811523 Z M 261.896637 1436 L 228.860458 1403.100952 L 592.258301 1403.100952 L 559.222107 1436 Z M 162.925201 1337.028564 L 162.925201 1303.992432 L 658.330627 1303.992432 L 658.330627 1337.028564 Z M 162.925201 1270.956299 L 162.925201 1237.920044 L 327.968964 1237.920044 L 327.968964 1270.956299 Z M 493.149811 1270.956299 L 493.149811 1237.920044 L 658.330627 1237.920044 L 658.330627 1270.956299 Z M 162.925201 1204.883911 L 162.925201 1171.847778 L 327.968964 1171.847778 L 327.968964 1204.883911 Z M 493.149811 1204.883911 L 493.149811 1171.847778 L 658.330627 1171.847778 L 658.330627 1204.883911 Z M 162.925201 1138.811523 L 162.925201 973.630737 L 261.896637 874.522217 L 559.222107 874.522217 L 658.330627 973.630737 L 658.330627 1138.811523 L 493.149811 1138.811523 L 493.149811 1039.703125 L 327.968964 1039.703125 L 327.968964 1138.811523 Z"/>
        </g>
        <g id="DREAMS-copy">
            <path id="path3" fill="#2359f0" fill-rule="evenodd" stroke="none" d="M 2489.950684 2082 L 2489.950684 1936.319458 L 2752.393555 1936.319458 L 2752.393555 1907.15918 L 2548.271484 1907.15918 L 2460.911377 1819.678345 L 2460.911377 1673.876831 L 2548.271484 1586.395874 L 2869.034668 1586.395874 L 2869.034668 1732.197388 L 2606.592041 1732.197388 L 2606.592041 1761.357666 L 2810.714111 1761.357666 L 2898.195068 1848.838623 L 2898.195068 1994.640137 L 2810.714111 2082 Z M 1892.815552 2082 L 1892.815552 1673.876831 L 1980.175537 1586.395874 L 2125.977051 1586.395874 L 2155.137207 1615.556152 L 2155.137207 1615.677246 L 2169.656982 1630.196899 L 2213.458008 1586.395874 L 2359.259277 1586.395874 L 2446.619385 1673.876831 L 2446.619385 2082 L 2300.938721 2082 L 2300.938721 1732.197388 L 2242.618164 1732.197388 L 2242.618164 2082 L 2096.81665 2082 L 2096.81665 1732.197388 L 2038.496094 1732.197388 L 2038.496094 2082 Z M 1732.721924 1761.357666 L 1732.721924 1732.197388 L 1586.92041 1732.197388 L 1586.92041 1761.357666 Z M 1441.239868 2082 L 1441.239868 1673.876831 L 1528.599854 1586.395874 L 1791.04248 1586.395874 L 1878.523438 1673.876831 L 1878.523438 2082 L 1732.721924 2082 L 1732.721924 1907.15918 L 1586.92041 1907.15918 L 1586.92041 2082 Z M 989.664185 2082 L 989.664185 1586.395874 L 1426.947754 1586.395874 L 1426.947754 1732.197388 L 1135.344727 1732.197388 L 1135.344727 1761.357666 L 1310.306519 1761.357666 L 1310.306519 1907.15918 L 1135.344727 1907.15918 L 1135.344727 1936.319458 L 1426.947754 1936.319458 L 1426.947754 2082 Z M 829.570557 1761.357666 L 829.570557 1732.197388 L 683.769043 1732.197388 L 683.769043 1761.357666 Z M 538.088501 2082 L 538.088501 1586.395874 L 887.891113 1586.395874 L 975.372009 1673.876831 L 975.372009 1790.517944 L 946.211731 1819.678345 L 946.090759 1819.678345 L 931.571106 1834.197998 L 975.372009 1877.998901 L 975.372009 2082 L 829.570557 2082 L 829.570557 1907.15918 L 683.769043 1907.15918 L 683.769043 2082 Z M 377.994843 1936.319458 L 377.994843 1732.197388 L 232.193344 1732.197388 L 232.193344 1936.319458 Z M 86.51284 2082 L 86.51284 1586.395874 L 436.31546 1586.395874 L 523.796326 1673.876831 L 523.796326 1994.640137 L 436.31546 2082 Z"/>
            <path id="path4" fill="#5ec4ff" fill-rule="evenodd" stroke="none" d="M 2489.950684 2083 L 2489.950684 2053.960693 L 2839.874268 2053.960693 L 2810.714111 2083 Z M 2489.950684 1995.640137 L 2489.950684 1966.479736 L 2898.195068 1966.479736 L 2898.195068 1995.640137 Z M 2752.393555 1937.319458 L 2752.393555 1908.15918 L 2898.195068 1908.15918 L 2898.195068 1937.319458 Z M 2519.111084 1878.998901 L 2489.950684 1849.838623 L 2898.195068 1849.838623 L 2898.195068 1878.998901 Z M 2460.911377 1820.678345 L 2460.911377 1674.876831 L 2548.271484 1587.395874 L 2869.034668 1587.395874 L 2869.034668 1733.197388 L 2606.592041 1733.197388 L 2606.592041 1762.357666 L 2810.714111 1762.357666 L 2869.034668 1820.678345 Z M 1892.815552 2083 L 1892.815552 2053.960693 L 2038.496094 2053.960693 L 2038.496094 2083 Z M 2096.81665 2083 L 2096.81665 2053.960693 L 2242.618164 2053.960693 L 2242.618164 2083 Z M 2300.938721 2083 L 2300.938721 2053.960693 L 2446.619385 2053.960693 L 2446.619385 2083 Z M 1892.815552 1995.640137 L 1892.815552 1966.479736 L 2038.496094 1966.479736 L 2038.496094 1995.640137 Z M 2096.81665 1995.640137 L 2096.81665 1966.479736 L 2242.618164 1966.479736 L 2242.618164 1995.640137 Z M 2300.938721 1995.640137 L 2300.938721 1966.479736 L 2446.619385 1966.479736 L 2446.619385 1995.640137 Z M 1892.815552 1937.319458 L 1892.815552 1908.15918 L 2038.496094 1908.15918 L 2038.496094 1937.319458 Z M 2096.81665 1937.319458 L 2096.81665 1908.15918 L 2242.618164 1908.15918 L 2242.618164 1937.319458 Z M 2300.938721 1937.319458 L 2300.938721 1908.15918 L 2446.619385 1908.15918 L 2446.619385 1937.319458 Z M 1892.815552 1878.998901 L 1892.815552 1849.838623 L 2038.496094 1849.838623 L 2038.496094 1878.998901 Z M 2096.81665 1878.998901 L 2096.81665 1849.838623 L 2242.618164 1849.838623 L 2242.618164 1878.998901 Z M 2300.938721 1878.998901 L 2300.938721 1849.838623 L 2446.619385 1849.838623 L 2446.619385 1878.998901 Z M 1892.815552 1820.678345 L 1892.815552 1674.876831 L 1980.175537 1587.395874 L 2125.977051 1587.395874 L 2155.137207 1616.556152 L 2155.137207 1616.677246 L 2169.656982 1631.196899 L 2213.458008 1587.395874 L 2359.259277 1587.395874 L 2446.619385 1674.876831 L 2446.619385 1820.678345 L 2300.938721 1820.678345 L 2300.938721 1733.197388 L 2242.618164 1733.197388 L 2242.618164 1820.678345 L 2096.81665 1820.678345 L 2096.81665 1733.197388 L 2038.496094 1733.197388 L 2038.496094 1820.678345 Z M 1441.239868 2083 L 1441.239868 2053.960693 L 1586.92041 2053.960693 L 1586.92041 2083 Z M 1732.721924 2083 L 1732.721924 2053.960693 L 1878.523438 2053.960693 L 1878.523438 2083 Z M 1441.239868 1995.640137 L 1441.239868 1966.479736 L 1586.92041 1966.479736 L 1586.92041 1995.640137 Z M 1732.721924 1995.640137 L 1732.721924 1966.479736 L 1878.523438 1966.479736 L 1878.523438 1995.640137 Z M 1441.239868 1937.319458 L 1441.239868 1908.15918 L 1586.92041 1908.15918 L 1586.92041 1937.319458 Z M 1732.721924 1937.319458 L 1732.721924 1908.15918 L 1878.523438 1908.15918 L 1878.523438 1937.319458 Z M 1441.239868 1878.998901 L 1441.239868 1849.838623 L 1878.523438 1849.838623 L 1878.523438 1878.998901 Z M 1732.721924 1762.357666 L 1732.721924 1733.197388 L 1586.92041 1733.197388 L 1586.92041 1762.357666 Z M 1441.239868 1820.678345 L 1441.239868 1674.876831 L 1528.599854 1587.395874 L 1791.04248 1587.395874 L 1878.523438 1674.876831 L 1878.523438 1820.678345 Z M 989.664185 2083 L 989.664185 2053.960693 L 1426.947754 2053.960693 L 1426.947754 2083 Z M 989.664185 1995.640137 L 989.664185 1966.479736 L 1426.947754 1966.479736 L 1426.947754 1995.640137 Z M 989.664185 1937.319458 L 989.664185 1908.15918 L 1135.344727 1908.15918 L 1135.344727 1937.319458 Z M 989.664185 1878.998901 L 989.664185 1849.838623 L 1310.306519 1849.838623 L 1310.306519 1878.998901 Z M 989.664185 1820.678345 L 989.664185 1587.395874 L 1426.947754 1587.395874 L 1426.947754 1733.197388 L 1135.344727 1733.197388 L 1135.344727 1762.357666 L 1310.306519 1762.357666 L 1310.306519 1820.678345 Z M 538.088501 2083 L 538.088501 2053.960693 L 683.769043 2053.960693 L 683.769043 2083 Z M 829.570557 2083 L 829.570557 2053.960693 L 975.372009 2053.960693 L 975.372009 2083 Z M 538.088501 1995.640137 L 538.088501 1966.479736 L 683.769043 1966.479736 L 683.769043 1995.640137 Z M 829.570557 1995.640137 L 829.570557 1966.479736 L 975.372009 1966.479736 L 975.372009 1995.640137 Z M 538.088501 1937.319458 L 538.088501 1908.15918 L 683.769043 1908.15918 L 683.769043 1937.319458 Z M 829.570557 1937.319458 L 829.570557 1908.15918 L 975.372009 1908.15918 L 975.372009 1937.319458 Z M 538.088501 1878.998901 L 538.088501 1849.838623 L 946.211731 1849.838623 L 975.372009 1878.998901 Z M 829.570557 1762.357666 L 829.570557 1733.197388 L 683.769043 1733.197388 L 683.769043 1762.357666 Z M 538.088501 1820.678345 L 538.088501 1587.395874 L 887.891113 1587.395874 L 975.372009 1674.876831 L 975.372009 1791.517944 L 946.211731 1820.678345 Z M 86.51284 2083 L 86.51284 2053.960693 L 465.475739 2053.960693 L 436.31546 2083 Z M 86.51284 1995.640137 L 86.51284 1966.479736 L 523.796326 1966.479736 L 523.796326 1995.640137 Z M 86.51284 1937.319458 L 86.51284 1908.15918 L 232.193344 1908.15918 L 232.193344 1937.319458 Z M 377.994843 1937.319458 L 377.994843 1908.15918 L 523.796326 1908.15918 L 523.796326 1937.319458 Z M 86.51284 1878.998901 L 86.51284 1849.838623 L 232.193344 1849.838623 L 232.193344 1878.998901 Z M 377.994843 1878.998901 L 377.994843 1849.838623 L 523.796326 1849.838623 L 523.796326 1878.998901 Z M 86.51284 1820.678345 L 86.51284 1587.395874 L 436.31546 1587.395874 L 523.796326 1674.876831 L 523.796326 1820.678345 L 377.994843 1820.678345 L 377.994843 1733.197388 L 232.193344 1733.197388 L 232.193344 1820.678345 Z"/>
        </g>
    </g>
</svg>